{"title":"Eminem - Beautiful TVRip H264 AAC-GreatMagician","uid":4989636,"size":28028343,"categoryP":"video","categoryS":"music_videos","magnet":"?xt=urn:btih:1ca8bd70d57df8a17801feccb5550019c9ca8328&amp;dn=Eminem+-+Beautiful+TVRip+H264+AAC-GreatMagician&amp;tr=udp%3A%2F%2Ftracker.openbittorrent.com%3A80&amp;tr=udp%3A%2F%2Fopen.demonii.com%3A1337&amp;tr=udp%3A%2F%2Ftracker.coppersurfer.tk%3A6969&amp;tr=udp%3A%2F%2Fexodus.desync.com%3A6969","seeders":1,"leechers":0,"uploader":"GreatMagician","files":6,"time":1246925883,"description":"Eminem - Beautiful TVRip H264 AAC-GreatMagician\n &lt;a href=&quot;\nhttp://img269.imageshack.us/img269/1712/shot0008llc.png&quot; rel=&quot;nofollow&quot; target=&quot;_NEW&quot;&gt;\nhttp://img269.imageshack.us/img269/1712/shot0008llc.png&lt;/a&gt;\n &lt;a href=&quot;\nhttp://img35.imageshack.us/img35/324/screeneminembeautiful.jpg&quot; rel=&quot;nofollow&quot; target=&quot;_NEW&quot;&gt;\nhttp://img35.imageshack.us/img35/324/screeneminembeautiful.jpg&lt;/a&gt;\n\n\n\n\nGeneral\n\nFormat                           : MPEG-4\nFormat profile                   : Base Media\nCodec ID                         : isom\nFile size                        : 26.1 MiB\nDuration                         : 4mn 12s\nOverall bit rate                 : 867 Kbps\n\n\nVideo\nID                               : 1\nFormat                           : AVC\nFormat/Info                      : Advanced Video Codec\nFormat profile                   : &lt;a class=&quot;__cf_email__&quot; href=&quot;/cdn-cgi/l/email-protection&quot; data-cfemail=&quot;e4a9858d8aa4a8d7cad4&quot;&gt;[email&amp;#160;protected]&lt;/a&gt;&lt;script cf-hash='f9e31' type=&quot;text/javascript&quot;&gt;\n/* &lt;![CDATA[ */!function(){try{var t=&quot;currentScript&quot;in document?document.currentScript:function(){for(var t=document.getElementsByTagName(&quot;script&quot;),e=t.length;e--;)if(t[e].getAttribute(&quot;cf-hash&quot;))return t[e]}();if(t&amp;&amp;t.previousSibling){var e,r,n,i,c=t.previousSibling,a=c.getAttribute(&quot;data-cfemail&quot;);if(a){for(e=&quot;&quot;,r=parseInt(a.substr(0,2),16),n=2;a.length-n;n+=2)i=parseInt(a.substr(n,2),16)^r,e+=String.fromCharCode(i);e=document.createTextNode(e),c.parentNode.replaceChild(e,c)}}}catch(u){}}();/* ]]&gt; */&lt;/script&gt;\nFormat settings, CABAC           : Yes\nFormat settings, ReFrames        : 5 frames\nCodec ID                         : avc1\nCodec ID/Info                    : Advanced Video Coding\nDuration                         : 4mn 12s\nBit rate mode                    : Variable\nBit rate                         : 733 Kbps\nWidth                            : 528 pixels\nHeight                           : 272 pixels\nDisplay aspect ratio             : 1.941\nOriginal display aspect ratio    : 2.35\nFrame rate mode                  : Constant\nFrame rate                       : 23.976 fps\nResolution                       : 24 bits\nColorimetry                      : 4:2:0\nScan type                        : Progressive\nBits/(Pixel*Frame)               : 0.213\nStream size                      : 22.1 MiB (85%)\nWriting library                  : x264 core 65 r1069 ed32ad2\n\n\nAudio\nID                               : 2\nFormat                           : AAC\nFormat/Info                      : Advanced Audio Codec\nFormat version                   : Version 4\nFormat profile                   : LC\nFormat settings, SBR             : No\nCodec ID                         : 40\nDuration                         : 4mn 12s\nBit rate mode                    : Variable\nBit rate                         : 128 Kbps\nChannel(s)                       : 2 channels\nChannel positions                : L R\nSampling rate                    : 44.1 KHz\nResolution                       : 16 bits\nStream size                      : 3.85 MiB (15%)\n\n\n","torrent":{"xt":"urn:btih:1ca8bd70d57df8a17801feccb5550019c9ca8328","amp;dn":"Eminem+-+Beautiful+TVRip+H264+AAC-GreatMagician","amp;tr":["udp%3A%2F%2Ftracker.openbittorrent.com%3A80","udp%3A%2F%2Fopen.demonii.com%3A1337","udp%3A%2F%2Ftracker.coppersurfer.tk%3A6969","udp%3A%2F%2Fexodus.desync.com%3A6969"],"infoHash":"1ca8bd70d57df8a17801feccb5550019c9ca8328","infoHashBuffer":{"type":"Buffer","data":[28,168,189,112,213,125,248,161,120,1,254,204,181,85,0,25,201,202,131,40]},"announce":[],"urlList":[]}}